<svg width="27" height="29" viewBox="0 0 27 29" fill="none" xmlns="http://www.w3.org/2000/svg">
<g id="Group 1614" opacity="0.4">
<g id="Group">
<g id="Group_2">
<path id="Vector" d="M25.0721 2.52051H17.358C17.0031 2.52051 16.7151 2.80295 16.7151 3.15093C16.7151 3.49891 17.0031 3.78135 17.358 3.78135H25.0721C25.427 3.78135 25.715 3.49891 25.715 3.15093C25.715 2.80295 25.427 2.52051 25.0721 2.52051Z" fill="white"/>
</g>
</g>
<g id="Group_3">
<g id="Group_4">
<path id="Vector_2" d="M25.5269 2.70602L22.9555 0.184393C22.7048 -0.0614643 22.2972 -0.0614643 22.0465 0.184393C21.7958 0.43025 21.7958 0.829945 22.0465 1.0758L24.1628 3.15111L22.0452 5.22766C21.7945 5.47351 21.7945 5.87321 22.0452 6.11907C22.1712 6.24134 22.3358 6.30316 22.5003 6.30316C22.6649 6.30316 22.8295 6.2414 22.9555 6.11907L25.5269 3.59743C25.7776 3.35152 25.7776 2.95188 25.5269 2.70602Z" fill="white"/>
</g>
</g>
<g id="Group_5">
<g id="Group_6">
<path id="Vector_3" d="M8.35705 2.52051H0.642869C0.288016 2.52051 0 2.80295 0 3.15093C0 3.49891 0.288016 3.78135 0.642869 3.78135H8.35705C8.7119 3.78135 8.99992 3.49891 8.99992 3.15093C8.99992 2.80295 8.7119 2.52051 8.35705 2.52051Z" fill="white"/>
</g>
</g>
<g id="Group_7">
<g id="Group_8">
<path id="Vector_4" d="M1.55236 3.15111L3.66864 1.0758C3.91935 0.829945 3.91935 0.43025 3.66864 0.184393C3.41793 -0.0614643 3.01034 -0.0614643 2.75963 0.184393L0.188277 2.70608C-0.0624336 2.95194 -0.0624336 3.35164 0.188277 3.59749L2.75969 6.11913C2.88571 6.2414 3.05024 6.30322 3.21483 6.30322C3.37942 6.30322 3.54395 6.24146 3.6687 6.11788C3.91941 5.87203 3.91941 5.47233 3.6687 5.22647L1.55236 3.15111Z" fill="white"/>
</g>
</g>
<g id="Group_9">
<g id="Group_10">
<path id="Vector_5" d="M24.4285 12.6096C23.9001 12.6096 23.4076 12.7672 22.9988 13.0357C22.6465 12.0548 21.6912 11.3488 20.5714 11.3488C20.043 11.3488 19.5505 11.5064 19.1417 11.7749C18.7894 10.7941 17.8341 10.088 16.7143 10.088C16.2463 10.088 15.8066 10.2116 15.4286 10.4272V6.30557C15.4286 4.91488 14.2753 3.78394 12.8572 3.78394C11.4391 3.78394 10.2858 4.91488 10.2858 6.30557V17.0224L8.05127 15.3796C6.72702 14.405 4.84217 14.5349 3.66835 15.6847C2.91621 16.4223 2.91621 17.6213 3.66835 18.3589L12.8238 27.3384C13.9166 28.41 15.3708 29.0001 16.9162 29.0001H19.9286C23.8268 29.0001 26.9999 25.8897 26.9999 22.0657V15.1312C26.9999 13.7405 25.8466 12.6096 24.4285 12.6096ZM25.7142 22.0656C25.7142 25.1937 23.1184 27.7392 19.9286 27.7392H16.9162C15.7128 27.7392 14.5826 27.2803 13.7328 26.4469L4.57736 17.4675C4.32664 17.2216 4.32664 16.8219 4.57736 16.5761C4.9759 16.1865 5.50818 15.986 6.04305 15.986C6.47764 15.986 6.91475 16.1184 7.28118 16.3882L10.543 18.7875C10.7385 18.9312 11.0007 18.9527 11.2167 18.8468C11.434 18.7396 11.5716 18.5215 11.5716 18.2832V6.30557C11.5716 5.61084 12.1476 5.04478 12.8573 5.04478C13.567 5.04478 14.1429 5.6109 14.1429 6.30557V15.7616C14.1429 16.1096 14.431 16.392 14.7858 16.392C15.1407 16.392 15.4287 16.1096 15.4287 15.7616V12.6096C15.4287 11.9149 16.0046 11.3488 16.7144 11.3488C17.4241 11.3488 18 11.915 18 12.6096V15.7616C18 16.1096 18.288 16.392 18.6429 16.392C18.9978 16.392 19.2858 16.1096 19.2858 15.7616V13.8704C19.2858 13.1757 19.8617 12.6096 20.5714 12.6096C21.2811 12.6096 21.8571 13.1757 21.8571 13.8704V15.7616C21.8571 16.1096 22.1451 16.392 22.5 16.392C22.8548 16.392 23.1429 16.1096 23.1429 15.7616V15.1312C23.1429 14.4365 23.7188 13.8704 24.4285 13.8704C25.1382 13.8704 25.7142 14.4365 25.7142 15.1312V22.0656Z" fill="white"/>
</g>
</g>
</g>
</svg>
