<svg width="11" height="12" viewBox="0 0 11 12" fill="none" xmlns="http://www.w3.org/2000/svg">
<g id="clock 1" clip-path="url(#clip0_2617_26774)">
<path id="Vector" d="M5.5 0.272705C2.46718 0.272705 0 2.84183 0 5.99998C0 9.15812 2.46718 11.7273 5.5 11.7273C8.53282 11.7273 11 9.15812 11 5.99998C11 2.84183 8.53282 0.272705 5.5 0.272705ZM8.11572 8.96237C8.02634 9.05544 7.90902 9.10228 7.79169 9.10228C7.67437 9.10228 7.55696 9.05544 7.46767 8.96237L5.17597 6.57606C5.08978 6.48683 5.04169 6.36554 5.04169 6.23864V3.13634C5.04169 2.87242 5.24697 2.6591 5.5 2.6591C5.75303 2.6591 5.95831 2.87242 5.95831 3.13634V6.04105L8.11572 8.28753C8.2949 8.4742 8.2949 8.77579 8.11572 8.96237Z" fill="#D7B27B"/>
</g>
<defs>
<clipPath id="clip0_2617_26774">
<rect width="11" height="11.4545" fill="white" transform="translate(0 0.272705)"/>
</clipPath>
</defs>
</svg>
