<svg width="30" height="30" viewBox="0 0 30 30" fill="none" xmlns="http://www.w3.org/2000/svg">
<g id="216267_key_icon 1">
<g id="Group">
<path id="Vector" d="M10.625 13.75C10.625 14.665 10.8325 15.53 11.1863 16.3137L6.25 21.25C6.25 21.25 6.25 22.09 6.25 23.125C6.25 24.16 7.37 25 8.75 25H11.25V22.5H13.75V20C13.75 20 16.6613 20 16.875 20C20.3275 20 23.125 17.2025 23.125 13.75C23.125 10.2975 20.3275 7.5 16.875 7.5C13.4225 7.5 10.625 10.2975 10.625 13.75ZM16.875 16.25C15.495 16.25 14.375 15.13 14.375 13.75C14.375 12.3688 15.495 11.2475 16.875 11.2475C18.2563 11.2475 19.375 12.3675 19.375 13.75C19.375 15.13 18.2563 16.25 16.875 16.25Z" fill="#D7B27B"/>
</g>
</g>
</svg>
