<svg width="72" height="57" viewBox="0 0 72 57" fill="none" xmlns="http://www.w3.org/2000/svg">
<path id="&#226;&#128;&#156;" opacity="0.2" d="M20.6 30.8001C22.4667 31.8668 23.9333 33.4001 25 35.4001C26.2 37.2668 26.8 39.4001 26.8 41.8001C26.8 45.9334 25.4 49.4001 22.6 52.2001C19.9333 55.0001 16.6667 56.4001 12.8 56.4001C9.2 56.4001 6.13333 55.2001 3.6 52.8001C1.2 50.4001 0 47.3334 0 43.6001C0 41.6001 0.333334 39.7334 1 38.0001C1.66667 36.1334 2.86667 33.6668 4.6 30.6001L21.4 0.600098H34L20.6 30.8001ZM58.4 30.8001C60.2667 31.8668 61.7333 33.4001 62.8 35.4001C64 37.2668 64.6 39.4001 64.6 41.8001C64.6 45.9334 63.2 49.4001 60.4 52.2001C57.7333 55.0001 54.4667 56.4001 50.6 56.4001C47 56.4001 43.9333 55.2001 41.4 52.8001C39 50.4001 37.8 47.3334 37.8 43.6001C37.8 41.6001 38.1333 39.7334 38.8 38.0001C39.4667 36.1334 40.6667 33.6668 42.4 30.6001L59.2 0.600098H71.8L58.4 30.8001Z" fill="white"/>
</svg>
