<svg width="21" height="21" viewBox="0 0 21 21" fill="none" xmlns="http://www.w3.org/2000/svg">
<g id="moscow 1" clip-path="url(#clip0_1_1826)">
<path id="Vector" fill-rule="evenodd" clip-rule="evenodd" d="M20.0156 14.7656L19.3594 14.4375V15.75H18.375V14.4375L17.7188 14.7656L17.0625 14.4375V15.75H16.0781V14.4375L15.4219 14.7656L14.7656 14.4375V21H20.6719V14.4375L20.0156 14.7656ZM11.8125 9.84375C11.8125 9.49565 11.6742 9.16181 11.4281 8.91567C11.1819 8.66953 10.8481 8.53125 10.5 8.53125C10.1519 8.53125 9.81806 8.66953 9.57192 8.91567C9.32578 9.16181 9.1875 9.49565 9.1875 9.84375C9.1875 10.1918 9.32578 10.5257 9.57192 10.7718C9.81806 11.018 10.1519 11.1562 10.5 11.1562C10.8481 11.1562 11.1819 11.018 11.4281 10.7718C11.6742 10.5257 11.8125 10.1918 11.8125 9.84375ZM12.7969 12.4688H13.7812V21H11.8125V18.0469C11.8125 17.6988 11.6742 17.3649 11.4281 17.1188C11.1819 16.8727 10.8481 16.7344 10.5 16.7344C10.1519 16.7344 9.81806 16.8727 9.57192 17.1188C9.32578 17.3649 9.1875 17.6988 9.1875 18.0469V21H7.21875V12.4688H8.20312V7.21875H8.85938L10.5039 3.25237L12.1406 7.21875H12.7969V12.4688ZM9.3847 3.43284L10.5 2.62238L11.6153 3.43284L11.1894 2.12166L12.3047 1.31119H10.9922L10.5 0L10.0078 1.31119H8.69531L9.81061 2.12166L9.3847 3.43284ZM5.57812 14.7656L6.23438 14.4375V21H0.328125V14.4375L0.984375 14.7656L1.64062 14.4375V15.75H2.625V14.4375L3.28125 14.7656L3.9375 14.4375V15.75H4.92188V14.4375L5.57812 14.7656Z" fill="white"/>
</g>
<defs>
<clipPath id="clip0_1_1826">
<rect width="21" height="21" fill="white"/>
</clipPath>
</defs>
</svg>
