<svg width="24" height="24" viewBox="0 0 24 24" fill="none" xmlns="http://www.w3.org/2000/svg">
<g id="phone-call 1" clip-path="url(#clip0_1575_74234)">
<g id="Group">
<g id="Group_2">
<path id="Vector" d="M23.346 17.6136L19.9967 14.2643C18.8006 13.0681 16.7671 13.5467 16.2886 15.1016C15.9298 16.1782 14.7336 16.7763 13.657 16.537C11.2647 15.9389 8.03504 12.8289 7.43696 10.317C7.07811 9.24036 7.79581 8.04419 8.87236 7.68538C10.4274 7.20691 10.9058 5.17343 9.70968 3.97726L6.36041 0.627989C5.40347 -0.209329 3.96807 -0.209329 3.13075 0.627989L0.858032 2.90071C-1.41469 5.29305 1.09727 11.6327 6.71926 17.2547C12.3413 22.8767 18.6809 25.5083 21.0733 23.116L23.346 20.8432C24.1834 19.8863 24.1834 18.4509 23.346 17.6136Z" fill="#D7B27B"/>
</g>
</g>
</g>
<defs>
<clipPath id="clip0_1575_74234">
<rect width="24" height="24" fill="white"/>
</clipPath>
</defs>
</svg>
