<svg width="17" height="17" viewBox="0 0 17 17" fill="none" xmlns="http://www.w3.org/2000/svg">
<g id="star 1" clip-path="url(#clip0_1551_38852)">
<path id="Vector" d="M16.631 7.73655C16.9656 7.41043 17.0837 6.93182 16.9394 6.48691C16.7947 6.04199 16.4179 5.72439 15.9549 5.65699L11.8387 5.05889C11.6634 5.03336 11.5119 4.92341 11.4336 4.76444L9.59336 1.03492C9.38673 0.615881 8.96735 0.355469 8.49996 0.355469C8.03292 0.355469 7.61354 0.615881 7.40691 1.03492L5.56632 4.76478C5.48803 4.92375 5.33621 5.0337 5.1609 5.05923L1.04468 5.65733C0.582063 5.72439 0.204891 6.04233 0.0602169 6.48725C-0.0841163 6.93216 0.0340054 7.41078 0.368627 7.73689L3.34686 10.6399C3.47383 10.7638 3.53204 10.9422 3.50209 11.1165L2.79948 15.2157C2.73719 15.5765 2.83182 15.9275 3.06534 16.2042C3.42822 16.6355 4.06172 16.7669 4.56825 16.5007L8.24942 14.5651C8.40329 14.4845 8.59698 14.4851 8.75051 14.5651L12.432 16.5007C12.6111 16.595 12.802 16.6427 12.9991 16.6427C13.359 16.6427 13.7 16.4827 13.9346 16.2042C14.1684 15.9275 14.2627 15.5758 14.2004 15.2157L13.4975 11.1165C13.4675 10.9418 13.5258 10.7638 13.6527 10.6399L16.631 7.73655Z" fill="#D7B27B"/>
</g>
<defs>
<clipPath id="clip0_1551_38852">
<rect width="17" height="17" fill="white"/>
</clipPath>
</defs>
</svg>
