<svg width="24" height="24" viewBox="0 0 24 24" fill="none" xmlns="http://www.w3.org/2000/svg">
<circle cx="12" cy="12" r="12" fill="#FFDD2D"/>
<path d="M17.8508 10.6898C17.8181 10.6566 17.799 10.6262 17.772 10.5839C17.7579 10.5625 17.7427 10.5394 17.7258 10.5146C17.7725 10.4606 17.812 10.3981 17.8418 10.3293L17.9611 10.0573L17.6672 10.015C17.6177 10.0077 17.5378 9.98685 17.4443 9.96206C17.2641 9.91474 17.0328 9.8539 16.7806 9.82743C16.8667 9.78969 16.9399 9.72153 16.9911 9.62914L17.0395 9.54183C17.0395 9.54183 17.0266 9.41962 16.9793 9.38132C16.9973 9.34358 17.0114 9.30189 17.0209 9.25625L17.0609 9.06135L16.8729 8.99715C16.8436 8.98701 16.8143 8.97966 16.7856 8.97516C16.7749 8.93968 16.7592 8.90194 16.7378 8.86193L16.6263 8.65746L16.4253 8.77519C16.3752 8.80449 16.333 8.8383 16.2987 8.87601C16.2688 8.8704 16.2367 8.86758 16.2029 8.86758C16.2029 8.86758 16.0881 8.85461 15.9614 8.90082L15.7993 8.73239L15.6073 8.52736C15.4277 8.33527 15.1845 8.27838 14.9368 8.37301C14.8422 8.27838 14.6947 8.20008 14.4656 8.20008C14.3879 8.20008 14.3197 8.20966 14.2798 8.21472C14.2798 8.21472 13.9645 8.27218 13.7872 8.44062L13.5721 8.33809C13.428 8.5651 13.1814 8.63718 13.1814 8.63718C13.1645 8.57072 13.1358 8.50875 13.0947 8.45187L13.1088 8.37189C13.1088 8.36963 13.1572 8.09869 13.3047 7.86886L13.5614 7.46891L13.1977 7.51003C13.1989 7.47399 13.1972 7.4312 13.1921 7.38049L13.1594 7.06955L12.8746 7.19853C12.8431 7.21261 12.8166 7.2267 12.7918 7.23966L12.7355 7.11967L12.6049 7.18728C12.5919 7.15518 12.5751 7.11855 12.552 7.07631L12.4017 6.80029L12.1883 7.03069C12.1663 7.05435 12.1478 7.07631 12.132 7.09715L12.0025 6.96817L11.8719 7.09771C11.8556 7.07687 11.8376 7.05491 11.8156 7.03125L11.6 6.80029L11.4491 7.07743C11.426 7.11967 11.4097 7.15574 11.3968 7.18784L11.2667 7.12026L11.2104 7.24022C11.1856 7.22728 11.1592 7.21317 11.1276 7.19853L10.8417 7.07011L10.8101 7.38217C10.8051 7.43231 10.8034 7.47455 10.8045 7.51062L10.4402 7.4695L10.6975 7.86941C10.8456 8.09869 10.8929 8.36963 10.8929 8.37189L10.9064 8.45187C10.8653 8.50931 10.836 8.57128 10.8197 8.63777C10.8197 8.63777 10.5866 8.53806 10.4307 8.33809L10.2111 8.44285C9.96058 8.27386 9.8052 8.20796 9.53497 8.20008C9.30584 8.19388 9.15833 8.27838 9.06375 8.37301C8.81546 8.27894 8.57282 8.33582 8.39381 8.52792C8.39381 8.52792 8.27614 8.65579 8.20182 8.73295C8.12751 8.8107 8.01772 8.8749 8.01772 8.8749C8.01772 8.8749 7.86178 8.83998 7.70132 8.8766C7.66698 8.83886 7.62421 8.80505 7.57354 8.77519L7.37198 8.65746L7.26107 8.86308C7.23967 8.9025 7.22447 8.93968 7.21436 8.97516C7.18564 8.97966 7.15637 8.98701 7.12709 8.99715L6.94017 9.06246L6.97903 9.25625C6.98858 9.303 7.0021 9.34469 7.02068 9.38243C7.00998 9.40326 7.00043 9.42523 6.99255 9.44833L6.96101 9.5424L7.00886 9.62969C7.05954 9.72153 7.13214 9.79024 7.21886 9.82801C6.96606 9.85448 6.73526 9.91529 6.55453 9.96262C6.46165 9.98685 6.38169 10.0082 6.33216 10.0156L6.03716 10.0584L6.10415 10.2105L6.15765 10.3316C6.18804 10.3992 6.22802 10.4617 6.27417 10.5158C6.2567 10.5405 6.1824 10.6572 6.14918 10.6904L6 10.8419L6.14301 10.9996C6.161 11.0188 6.32146 11.1872 6.58099 11.1878C6.65192 11.1878 6.72229 11.1754 6.7921 11.1506C6.86136 11.2588 6.94355 11.3686 7.01845 11.4227C6.88049 11.5849 6.72344 11.7257 6.49992 11.8322L6.31303 11.9212L6.39351 12.1347C6.44589 12.2637 6.54777 12.405 6.74481 12.4591C6.7026 12.5853 6.68234 12.7047 6.66432 12.8112C6.62208 13.0641 6.60406 13.1689 6.38169 13.2472L6.18184 13.317L6.23927 13.5209C6.28542 13.6871 6.35468 13.7969 6.42955 13.8696L6.29668 14.0161C6.29668 14.0161 6.61197 14.2527 6.92103 14.2814C6.92553 14.2819 7.18902 14.2988 7.30725 14.1479C7.35455 14.3191 7.42941 14.4769 7.49752 14.6199C7.63715 14.914 7.71146 15.088 7.61801 15.2469L7.4069 15.6051L7.82181 15.5877C8.00309 15.5803 8.17143 15.5691 8.31723 15.533C8.31723 15.5409 8.31668 15.5482 8.3161 15.5556L8.28233 15.8631L8.64601 15.7865C8.68431 15.7752 8.72032 15.76 8.75298 15.7426C8.97817 16.0062 9.36102 16.2118 9.87669 16.2118H9.90653L9.31371 16.4551L9.74553 16.6799C10.0298 16.828 10.3457 16.952 10.706 17.0573L10.6559 17.2302L10.8726 17.2938C10.9976 17.3305 11.4497 17.4505 12.0003 17.4505C12.5509 17.4505 13.0024 17.3305 13.1279 17.2938L13.3441 17.2302L13.294 17.0578C13.6549 16.9525 13.9707 16.8286 14.255 16.6804L14.6868 16.4557L14.0934 16.2124H14.1233C14.639 16.2124 15.0212 16.0068 15.2464 15.7431C15.2791 15.7606 15.3151 15.7758 15.3534 15.7871L15.7171 15.8637L15.6839 15.5567C15.6833 15.5493 15.6827 15.5415 15.6827 15.5336C15.828 15.5696 15.9969 15.5803 16.1776 15.5882L16.5925 15.6057L16.3825 15.248C16.2885 15.0891 16.3634 14.9151 16.5024 14.621C16.5706 14.478 16.6455 14.3202 16.6927 14.149C16.7727 14.2098 16.8588 14.2465 16.9444 14.2656C16.9444 14.2656 17.0108 14.2853 17.0744 14.287C17.258 14.2926 17.3497 14.2403 17.4759 14.1608L17.705 14.0166L17.571 13.8702C17.6459 13.7981 17.7151 13.6883 17.7613 13.5226L17.8193 13.3181L17.6188 13.2483C17.3959 13.17 17.3784 13.0652 17.3362 12.8123C17.3182 12.7058 17.2985 12.5859 17.2557 12.4602C17.4528 12.4056 17.5541 12.2642 17.6065 12.1358L17.6864 11.9218L17.4995 11.8327C17.276 11.7263 17.1189 11.5855 16.9804 11.4232C17.0559 11.3692 17.138 11.2593 17.2078 11.1512C17.2771 11.176 17.3475 11.1878 17.419 11.1883C17.6785 11.1883 17.8395 11.0199 17.857 11.0008L18 10.843L17.8508 10.6898Z" fill="white"/>
<path fill-rule="evenodd" clip-rule="evenodd" d="M10.1704 13.4653V11.7472C10.1704 11.5873 10.1243 11.4273 10.0691 11.2803H11.4017C11.5238 11.4481 11.7457 11.5608 12.0001 11.5608C12.2535 11.5608 12.4753 11.4481 12.598 11.2803H13.9306C13.8743 11.4279 13.8287 11.5873 13.8287 11.7472V13.4653H10.1704ZM11.9996 15.8131C11.8132 15.6278 11.6804 15.6075 11.1782 15.6075C10.578 15.6075 10.1704 15.2554 10.1704 14.6927V13.5661H13.8281V14.6927C13.8281 15.2554 13.4211 15.6075 12.8198 15.6075C12.3182 15.6069 12.1853 15.6278 11.9996 15.8131Z" fill="#FFDD2D"/>
<path d="M10.3828 16.0259V16.3689L10.085 16.4889C10.3366 16.6033 10.6491 16.7171 11.0161 16.801L11.185 16.2506C10.8247 16.1768 10.5736 16.0997 10.3828 16.0259Z" fill="white"/>
<path d="M12.0001 16.4904C11.6483 16.4904 11.3521 16.4538 11.2339 16.4268L11.0554 17.0041C11.3358 17.0728 11.664 17.1235 12.0001 17.1235C12.3351 17.1235 12.6633 17.0734 12.9448 17.0041L12.7658 16.4268C12.6476 16.4544 12.3526 16.4904 12.0001 16.4904Z" fill="white"/>
<path d="M13.6167 16.0259C13.4253 16.0997 13.1748 16.1763 12.8145 16.2512L12.9839 16.8015C13.3516 16.7176 13.6629 16.6038 13.9145 16.4895L13.6173 16.3695V16.0259H13.6167Z" fill="white"/>
<path d="M9.75909 10.4917C10.2252 10.2399 11.3647 9.68558 10.5923 9.08793C10.487 9.00683 10.371 8.93361 10.2737 8.8429C10.1531 8.93584 10.3187 9.16681 10.3603 9.25128C10.3603 9.25128 10.1031 9.27721 10.0417 9.27721C9.64425 9.2755 9.22763 9.04005 9.43874 8.58887C9.28054 8.62153 9.2614 8.77361 9.21298 8.90374C9.11163 8.83502 8.93546 8.68743 8.79976 8.70827C8.91012 9.06148 9.37458 9.37974 9.73486 9.45181C9.37063 9.6501 8.69505 9.79767 8.33978 9.37071C8.0904 9.85345 8.43776 10.0551 8.77837 10.308C7.48181 10.9 7.67323 11.5642 6.82257 12.0869C6.93292 12.1387 7.42496 12.0345 7.46888 12.0283C7.28422 12.2677 7.19806 12.3691 7.14403 12.4857C7.09224 12.595 7.06914 12.7184 7.01793 12.9842C6.97795 13.1943 6.90476 13.4039 6.64917 13.543C6.74938 13.7244 6.97175 13.5824 7.06464 13.5582C7.05226 13.5774 7.02072 13.7959 6.93742 13.9013C7.37428 13.8731 7.17216 12.9516 7.60906 13.1735C7.73234 13.2355 7.7695 13.3808 7.71265 13.4996C7.42552 14.0922 8.07803 14.6144 8.04255 15.1337C8.20298 15.1326 8.36907 15.1281 8.47379 14.9113C8.52842 15.0194 8.61285 15.1715 8.66013 15.3179L8.79077 15.0954C8.87125 15.4639 9.21467 15.8041 9.67857 15.8345C9.45732 15.4841 9.72251 15.0059 9.18483 14.4972C9.25183 14.4431 9.40664 14.339 9.46182 14.268C8.80202 14.3457 8.11348 13.8235 8.42593 13.5757C8.63031 13.414 8.71981 13.7498 9.0351 13.6934L8.91178 13.587C8.95514 13.5441 9.00466 13.4884 9.05591 13.4461C8.92192 13.4298 8.77555 13.3442 8.77555 13.3442L8.85549 13.2118C8.08252 13.2107 8.0628 12.6192 8.37697 12.5956C8.52445 12.5849 8.71531 12.8569 9.19104 12.8C9.13022 12.7268 9.10602 12.6158 9.0773 12.5342C9.19215 12.5235 9.32727 12.5246 9.43593 12.4716C9.20342 12.4418 9.14487 12.3635 8.95121 12.217L9.17584 12.1348C8.84988 11.972 8.86958 11.6887 8.85944 11.3935C9.03 11.4915 9.23044 11.6436 9.44438 11.5732C9.49504 11.5563 9.5277 11.5326 9.52881 11.4797C9.2237 11.3575 9.02778 10.8871 9.75909 10.4917ZM9.20229 10.5379C8.79412 10.9744 8.97089 11.2358 9.05312 11.3163C8.90109 11.2836 8.67422 11.0899 8.726 10.9023C8.67759 10.9603 8.62807 11.0234 8.57739 11.0882C8.47604 11.2234 8.38542 11.3558 8.3049 11.4842C8.18103 11.8526 8.40792 12.2328 8.79412 12.4012C8.36512 12.3381 8.17259 11.9562 8.17374 11.7129C7.9688 12.1004 7.87085 12.4542 7.87985 12.751C7.88379 12.8614 7.89337 12.9645 7.90801 13.062C8.00651 13.249 8.16471 13.3177 8.44675 13.3521C8.19061 13.3684 8.05492 13.3566 7.94346 13.2394C8.11797 13.9903 8.9343 14.6403 9.26646 15.1968C8.93375 14.7642 8.24521 14.1198 8.00427 13.654C7.9857 13.8224 8.03073 14.2539 8.24013 14.5192C7.93164 14.2156 7.90742 13.756 7.9277 13.4867C7.84945 13.2929 7.79989 13.0766 7.79313 12.8305C7.78696 12.604 7.80272 12.4074 7.83705 12.2311C7.64228 12.5083 7.36076 12.6153 7.22228 13.0372C7.2493 12.493 7.65521 12.4846 7.95921 11.8239C8.07688 11.5349 8.24805 11.2853 8.43721 11.0026C8.19681 11.0814 8.01665 11.1378 7.73855 11.4425C7.93614 10.975 9.07786 10.4494 9.60089 9.94076C9.4438 9.97402 8.80257 9.99033 8.5363 9.81234C9.01875 9.94303 10.0924 9.79372 10.4977 9.5166C10.2179 9.91937 9.60877 9.94245 8.86732 10.7435C8.96191 10.668 9.088 10.5919 9.20229 10.5379Z" fill="white"/>
<path d="M16.9811 12.984C16.9299 12.7181 16.9074 12.5948 16.8556 12.4855C16.8021 12.3689 16.7154 12.2675 16.5302 12.0281C16.5741 12.0343 17.0673 12.1385 17.177 12.0867C16.3264 11.5639 16.5178 10.8998 15.2207 10.3078C15.5613 10.0549 15.9087 9.85321 15.6592 9.3699C15.304 9.79743 14.6284 9.64986 14.2642 9.45101C14.625 9.3789 15.089 9.0612 15.1993 8.70746C15.0631 8.68662 14.8868 8.83421 14.7855 8.90235C14.7371 8.77225 14.7185 8.62016 14.5603 8.58691C14.7714 9.03867 14.3543 9.27413 13.9562 9.27582C13.8954 9.27582 13.6387 9.24993 13.6387 9.24993C13.6798 9.16543 13.8453 8.93448 13.7243 8.84153C13.6269 8.93277 13.512 9.00544 13.4062 9.08658C12.6332 9.68423 13.7738 10.2391 14.24 10.4903C14.9702 10.8857 14.7759 11.3561 14.4702 11.4766C14.4714 11.5296 14.504 11.5532 14.5552 11.5701C14.7681 11.6411 14.9696 11.489 15.139 11.3904C15.1295 11.6856 15.1497 11.9695 14.8238 12.1317L15.0479 12.214C14.8542 12.3604 14.7962 12.4387 14.5637 12.4686C14.6718 12.5215 14.808 12.5204 14.9223 12.5311C14.893 12.6128 14.8677 12.7237 14.808 12.797C15.2843 12.8533 15.4757 12.5818 15.6221 12.5925C15.9351 12.6162 15.9166 13.2076 15.143 13.2087L15.2229 13.3411C15.2229 13.3411 15.0766 13.4267 14.942 13.4431C14.9932 13.4847 15.0433 13.5411 15.0867 13.5839L14.9634 13.6903C15.2781 13.7467 15.3682 13.411 15.5726 13.5726C15.885 13.8205 15.197 14.3426 14.5367 14.2649C14.5924 14.3359 14.7472 14.4407 14.8142 14.4947C14.276 15.0028 14.5406 15.4816 14.3205 15.8326C14.7832 15.8016 15.1267 15.4614 15.2083 15.0929L15.3389 15.3155C15.3856 15.169 15.4712 15.0169 15.5247 14.9088C15.6289 15.1256 15.796 15.1301 15.9571 15.1312C15.9205 14.6119 16.5724 14.0897 16.2864 13.4971C16.229 13.3788 16.2661 13.2335 16.3894 13.171C16.8274 12.9491 16.6242 13.8706 17.0616 13.8988C16.9778 13.7934 16.9468 13.5749 16.935 13.5557C17.0273 13.58 17.2491 13.7219 17.3493 13.5399C17.0954 13.4036 17.0222 13.1941 16.9811 12.984ZM16.1631 12.2303C16.1975 12.4072 16.2149 12.6032 16.207 12.8296C16.1997 13.0758 16.1507 13.2921 16.0725 13.4859C16.0922 13.7551 16.0685 14.2148 15.76 14.5184C15.9689 14.2525 16.0145 13.8216 15.9959 13.6532C15.7538 14.119 15.0659 14.7634 14.7326 15.196C15.0653 14.6395 15.8816 13.9889 16.0567 13.2386C15.9441 13.3552 15.8096 13.3676 15.5528 13.3512C15.8343 13.3169 15.9925 13.2482 16.0911 13.0611C16.1057 12.9643 16.1153 12.8606 16.1192 12.7502C16.1288 12.4534 16.0303 12.0996 15.8253 11.7121C15.827 11.9554 15.6345 12.3373 15.2049 12.4004C15.59 12.2314 15.8175 11.8512 15.6942 11.4834C15.6142 11.3549 15.5242 11.222 15.4217 11.0874C15.371 11.0226 15.3215 10.9595 15.2725 10.9015C15.3243 11.0891 15.0974 11.2828 14.9454 11.3155C15.0281 11.235 15.2044 10.9736 14.7968 10.537C14.9111 10.5911 15.0372 10.6672 15.1323 10.7415C14.3909 9.94052 13.7823 9.91798 13.5013 9.51467C13.9073 9.79182 14.9809 9.94163 15.4628 9.81039C15.197 9.9884 14.5552 9.97205 14.3982 9.93881C14.9212 10.4475 16.064 10.973 16.2611 11.4406C15.983 11.1358 15.8023 11.0795 15.563 11.0006C15.7527 11.284 15.9227 11.5329 16.0404 11.8219C16.345 12.4827 16.7514 12.4905 16.7779 13.0352C16.6394 12.6144 16.3585 12.5074 16.1631 12.2303Z" fill="white"/>
<path d="M12.5975 11.2798C12.4753 11.4477 12.253 11.5603 12.0001 11.5603C11.941 11.5603 11.8842 11.5536 11.8301 11.5434C11.8453 11.6127 11.8808 11.6842 11.9546 11.7456C11.9247 11.9467 12.0114 12.1349 12.2271 12.1839C12.2501 12.2864 12.3132 12.3636 12.4201 12.4002L12.2698 12.5737C12.2119 12.6401 12.1364 12.6616 12.0756 12.6537L11.4045 12.5776C11.4338 12.5032 11.3561 12.4171 11.1433 12.4537L11.4068 11.7158L11.2463 11.3739L10.9418 11.6341L10.9192 12.4081L10.788 12.3444C10.6192 12.2712 10.5691 12.5793 10.7301 12.5804L10.7948 12.581C10.7903 12.6125 10.8005 12.6475 10.8258 12.6587C10.7954 12.6711 10.7864 12.728 10.8241 12.7483C10.7858 12.7669 10.7802 12.8255 10.8111 12.8508C10.7779 12.9077 10.7717 13.0311 10.8894 13.062C10.9862 13.0874 11.047 12.9837 11.0667 12.9235L12.1111 13.2468C12.258 13.2891 12.3639 13.2654 12.4866 13.1578L12.7591 12.9195C12.7247 13.0756 12.7805 13.2158 12.8992 13.2626C12.8992 13.2626 12.8807 13.4056 12.888 13.4648L13.2534 13.4654H13.8287V11.7473C13.8287 11.5873 13.8743 11.4274 13.9306 11.2798H13.2534H12.5975Z" fill="white"/>
<path d="M11.0336 14.1706L11.0539 14.1959C11.082 14.2309 11.0989 14.2224 11.131 14.2038L11.1783 14.1785C11.2081 14.1559 11.4024 14.2303 11.4131 14.0686C11.4345 14.1892 11.2909 14.4432 11.3776 14.5852L11.4941 14.7761L11.1136 14.7817C11.0719 14.7817 11.0499 14.8071 11.0387 14.8296L10.939 15.0364C10.9132 15.091 10.9148 15.1473 10.9475 15.1851L11.015 15.2611C11.015 15.2611 11.0702 15.2144 11.0882 15.153L11.0584 15.122C11.0336 15.0983 11.0336 15.0758 11.0471 15.0465L11.1085 14.9192C11.1321 14.8691 11.1564 14.8584 11.2104 14.8713L11.5184 14.9378C11.5409 14.9434 11.5775 14.9541 11.5994 14.9164C11.6371 14.8493 11.7036 14.8449 11.7711 14.8556C11.94 14.8809 12.3302 14.9215 12.4692 14.7587C12.6325 14.9755 12.9517 14.9755 12.9309 15.0893L12.8633 15.4622H12.9646L13.0266 15.0809C13.0333 15.0364 13.0609 14.9755 13.0131 14.9412C12.9934 14.926 12.9843 14.9181 12.9399 14.8415C12.8819 14.7401 12.8847 14.588 12.829 14.4567C12.8819 14.3942 12.9393 14.3728 12.9894 14.3846C13.102 14.4122 13.1324 14.6066 13.2923 14.7649C13.2743 14.6945 13.2664 14.6173 13.2287 14.5502C13.2287 14.5502 13.3396 14.6364 13.3683 14.7373C13.3863 14.8004 13.4049 14.8465 13.4618 14.8758C13.4995 14.8893 13.5445 14.8713 13.5895 14.8173C13.5895 14.8173 13.4843 14.6674 13.4072 14.5694C13.3013 14.4348 13.16 14.2996 12.9675 14.3154C12.9066 14.3204 12.8481 14.348 12.7924 14.3813C12.5734 14.2585 12.4034 14.3886 12.3358 14.3886L11.9259 14.3644C11.8454 14.3593 11.7818 14.2658 11.7818 14.2658C11.7717 13.9188 11.493 13.7808 11.3967 13.7808C11.3967 13.7808 11.4057 13.7183 11.3804 13.6963L11.2948 13.8039L11.0573 13.7171L11.2436 13.8698L11.0415 14.1047C11.0207 14.1278 11.0235 14.1582 11.0336 14.1706Z" fill="white"/>
<path d="M10.7653 14.658C10.7079 14.7025 10.7107 14.7645 10.7451 14.8338L10.7794 14.898L10.8689 14.8298L10.8487 14.7859C10.834 14.7549 10.8346 14.7234 10.8599 14.7037L10.9883 14.6068C11.0243 14.5803 11.0355 14.5775 11.0738 14.5831L11.3446 14.64C11.3446 14.64 11.3036 14.5803 11.29 14.5194L11.035 14.4857C10.999 14.4811 10.977 14.4964 10.9455 14.5206L10.7653 14.658Z" fill="white"/>
<path d="M12.4971 15.4626H12.5995L12.7639 15.0576C12.7696 15.0435 12.7774 15.0373 12.7836 15.0255C12.7099 14.9962 12.6665 14.9759 12.6052 14.9404C12.6463 14.9956 12.6783 15.0193 12.6615 15.0706L12.4971 15.4626Z" fill="white"/>
<path d="M12.5841 9.98467L12.7739 8.89355L12.0549 9.13802V10.2629L12.5841 9.98467ZM12.1765 9.24843L12.6534 9.07268C12.6534 9.07268 12.5605 9.14816 12.4496 9.22422C12.3511 9.29236 12.1765 9.36503 12.1765 9.36503V9.24843ZM12.1765 9.51262L12.6128 9.35657C12.6128 9.35657 12.5605 9.41178 12.4501 9.48784C12.3516 9.5554 12.1771 9.62811 12.1771 9.62811V9.51262H12.1765ZM12.1765 9.79312L12.5605 9.64557C12.5605 9.64557 12.5605 9.6923 12.4496 9.76778C12.3511 9.83596 12.1765 9.90861 12.1765 9.90861V9.79312Z" fill="white"/>
<path d="M11.3051 10.9497L11.3208 10.975H11.4689L11.4706 11.0009C11.4723 11.0257 11.4779 11.051 11.4864 11.077C11.5094 11.1474 11.555 11.2212 11.6282 11.2809C11.7132 11.3496 11.836 11.3992 11.9993 11.3992C12.3534 11.3992 12.5133 11.1699 12.5284 11.0009L12.5296 10.975H12.6782L12.694 10.9497C12.8336 10.7311 13.0042 10.4883 13.2023 10.4534L12.6619 10.1396L11.9993 10.5002L11.336 10.1396L10.7961 10.4534C10.9943 10.4878 11.1649 10.7311 11.3051 10.9497Z" fill="white"/>
<path d="M11.9434 10.2629V9.13802L11.2256 8.89355L11.4142 9.98467L11.9434 10.2629ZM11.8224 9.90974C11.8224 9.90974 11.6478 9.83652 11.5493 9.76891C11.4384 9.69341 11.4384 9.64613 11.4384 9.64613L11.8229 9.79367V9.90974H11.8224ZM11.8224 9.24843V9.36503C11.8224 9.36503 11.6478 9.29236 11.5493 9.22422C11.4378 9.14816 11.3444 9.07268 11.3444 9.07268L11.8224 9.24843ZM11.8224 9.51262V9.62866C11.8224 9.62866 11.6478 9.556 11.5493 9.48839C11.4378 9.41235 11.386 9.35715 11.386 9.35715L11.8224 9.51262Z" fill="white"/>
<path d="M12 8.41211C11.5896 8.41211 11.2816 8.54674 11.2146 8.70444L12 9.01482L12.7842 8.70444C12.7178 8.54674 12.4104 8.41211 12 8.41211Z" fill="white"/>
<path d="M11.9995 7.96128C12.3018 7.96128 12.6047 8.05311 12.8085 8.17195C12.8417 8.0621 12.8772 7.98383 12.9256 7.89426L12.7398 7.92298L12.5895 7.6019L12.3086 7.75117L11.9995 7.44531L11.6899 7.75117L11.4095 7.6019L11.2581 7.92298L11.0723 7.89426C11.1207 7.98383 11.1556 8.0621 11.1899 8.17195C11.3943 8.05311 11.6961 7.96128 11.9995 7.96128Z" fill="white"/>
<path d="M17.1228 10.4346C17.2242 10.4216 17.3058 10.3878 17.4054 10.3135C17.191 10.2566 16.7417 10.0938 16.3583 10.167C16.2316 10.1839 16.1613 10.2352 16.2063 10.2645C16.4123 10.4014 16.6668 10.7185 16.852 11.0886C17.0147 10.8864 16.9466 10.621 16.9123 10.545C17.2365 10.7405 17.3215 10.8356 17.4719 10.7985C17.3914 10.6751 17.2782 10.5642 17.1228 10.4346Z" fill="white"/>
<path d="M7.14744 11.0884C7.33265 10.7183 7.58713 10.4012 7.79374 10.2643C7.83989 10.235 7.7684 10.1837 7.64286 10.1668C7.2589 10.0942 6.80851 10.2564 6.59402 10.3133C6.69478 10.3876 6.77474 10.4215 6.87721 10.4344C6.72127 10.5645 6.6081 10.6749 6.52759 10.7983C6.67903 10.8355 6.76348 10.7403 7.08721 10.5448C7.05399 10.6214 6.98529 10.8862 7.14744 11.0884Z" fill="white"/>
<path fill-rule="evenodd" clip-rule="evenodd" d="M9.39557 14.5226C9.54474 14.4043 9.66861 14.3451 9.66242 14.0584C9.43835 14.1733 8.80273 14.1671 8.53701 13.801C8.46213 13.6968 8.54209 13.6444 8.61469 13.7266C8.79652 13.9328 9.13322 13.8393 9.25594 13.7802C9.23622 13.7092 9.18164 13.6168 9.13602 13.5774C9.18219 13.5323 9.31223 13.4647 9.33868 13.3487C9.26943 13.3109 8.99976 13.2839 8.99976 13.2839C9.04312 13.2422 9.09719 13.1842 9.06453 13.0293C8.78922 13.1138 8.44861 12.9989 8.37149 12.8969C8.2955 12.7966 8.37318 12.7026 8.43737 12.769C8.57471 12.9133 9.25144 13.0783 9.50309 12.8276C9.40962 12.8017 9.30662 12.7184 9.28805 12.6665C9.52111 12.6429 9.70689 12.5054 9.72209 12.3342C9.59315 12.3342 9.34995 12.3246 9.26664 12.2626C9.37811 12.2215 9.44904 12.181 9.48452 12.0559C9.05832 12.03 9.02455 11.7134 9.0223 11.6611C9.29985 11.821 9.78852 11.75 9.66185 11.3557C9.43103 11.3434 9.1985 10.9699 9.833 10.6269C10.41 10.3142 11.0659 9.97739 11.0079 9.42251C10.9702 9.06764 10.3864 8.82542 10.3121 8.64573C10.0683 8.76178 10.0193 8.89641 10.1291 9.12229C10.1291 9.12229 9.58583 9.17636 9.54308 8.84177C9.5245 8.69194 9.6247 8.55167 9.73223 8.44408C9.67141 8.44408 9.26211 8.33423 9.13883 8.66772C8.9097 8.51113 8.71323 8.51675 8.55895 8.68236C8.80555 8.8288 8.95811 9.33128 9.36573 9.47942C9.07578 9.63658 8.60681 9.57068 8.33322 9.08736C8.07424 9.47772 7.92506 9.86416 8.48072 10.277C7.47014 10.7372 7.47746 11.6171 6.59809 12.0362C6.68704 12.2756 6.87508 12.2756 7.11491 12.2384C6.73489 12.7325 7.05862 13.2495 6.45679 13.4608C6.51308 13.6624 6.62625 13.8235 6.84806 13.7644C6.78501 13.863 6.74336 13.8607 6.64538 13.9689C6.97417 14.1762 7.36432 14.0263 7.45271 13.3611C7.46847 13.2422 7.63173 13.3166 7.57544 13.4332C7.20048 14.2088 8.14855 14.7924 7.81301 15.3613C8.10857 15.3489 8.33432 15.3258 8.45707 15.2261C8.51731 15.3456 8.5539 15.4638 8.54038 15.5804C8.70364 15.5472 8.76331 15.4509 8.77458 15.3394C8.88154 15.652 9.26437 15.986 9.87691 15.986C9.55206 15.5219 9.85439 15.0515 9.39557 14.5226ZM8.79091 15.0943L8.66031 15.3168C8.61358 15.1704 8.52856 15.0183 8.47395 14.9101C8.36869 15.127 8.20261 15.1315 8.0427 15.1326C8.07818 14.6133 7.42567 14.0911 7.7128 13.4985C7.77024 13.3802 7.73249 13.2349 7.60921 13.1724C7.17179 12.9504 7.37444 13.872 6.93757 13.9001C7.0209 13.7948 7.05241 13.5763 7.06482 13.5571C6.9719 13.5813 6.74953 13.7233 6.64932 13.5419C6.90491 13.4028 6.9781 13.1932 7.01808 12.9831C7.06876 12.7172 7.09239 12.5939 7.14363 12.4846C7.19768 12.368 7.28381 12.2666 7.46847 12.0272C7.42455 12.0334 6.93307 12.1376 6.82216 12.0858C7.67282 11.563 7.4814 10.8989 8.77795 10.3069C8.43792 10.054 8.09055 9.85231 8.33941 9.36957C8.69466 9.79653 9.36968 9.64898 9.73447 9.45069C9.37416 9.37858 8.9097 9.06092 8.79992 8.70714C8.93559 8.6863 9.11181 8.83389 9.21259 8.90261C9.26156 8.77193 9.28073 8.62039 9.4389 8.58774C9.22779 9.03893 9.64441 9.27436 10.0419 9.27607C10.1038 9.27607 10.3605 9.25016 10.3605 9.25016C10.3194 9.16567 10.1533 8.93471 10.2738 8.84177C10.3712 8.93304 10.4872 9.0057 10.5925 9.08681C11.3654 9.68502 10.2254 10.2393 9.75925 10.4911C9.02792 10.8865 9.22384 11.3574 9.52899 11.4774C9.52786 11.5304 9.49522 11.554 9.44454 11.5709C9.2306 11.6419 9.03018 11.4892 8.85962 11.3912C8.86972 11.6864 8.84946 11.9703 9.176 12.1325L8.95135 12.2142C9.14447 12.3612 9.2036 12.439 9.43611 12.4694C9.32743 12.5223 9.19288 12.5212 9.07746 12.5319C9.10673 12.6136 9.1304 12.7245 9.19118 12.7978C8.71547 12.8541 8.52463 12.5826 8.37713 12.5933C8.06298 12.6169 8.08268 13.2084 8.85565 13.2096L8.77573 13.3419C8.77573 13.3419 8.92208 13.4276 9.05665 13.4439C9.00542 13.4855 8.95587 13.5419 8.91252 13.5847L9.03579 13.6912C8.71999 13.7475 8.63104 13.4118 8.42609 13.5734C8.11366 13.8213 8.80218 14.3435 9.462 14.2657C9.40682 14.3367 9.25144 14.4415 9.18501 14.4955C9.72264 15.0036 9.45747 15.4824 9.67873 15.8334C9.21485 15.8029 8.87143 15.4621 8.79091 15.0943Z" fill="black"/>
<path fill-rule="evenodd" clip-rule="evenodd" d="M7.9423 13.239C8.05435 13.3556 8.18945 13.368 8.44562 13.3516C8.16355 13.3173 8.00535 13.2486 7.90684 13.0616C7.89276 12.9647 7.88318 12.861 7.87924 12.7506C7.87025 12.4538 7.96819 12.1 8.17313 11.7124C8.17202 11.9552 8.36399 12.3371 8.79355 12.4008C8.40732 12.2318 8.18045 11.8516 8.30428 11.4838C8.3848 11.3553 8.47546 11.2224 8.57679 11.0878C8.62747 11.023 8.67699 10.9599 8.72541 10.9019C8.67362 11.0895 8.90051 11.2832 9.0525 11.3159C8.97032 11.2353 8.79355 10.9745 9.20169 10.538C9.08798 10.5921 8.96186 10.6681 8.86617 10.7425C9.60704 9.94148 10.2167 9.91893 10.4966 9.51562C10.0912 9.79275 9.01762 9.94259 8.53512 9.81135C8.80142 9.98936 9.44267 9.97301 9.59972 9.93979C9.07728 10.4484 7.93556 10.974 7.73738 11.4415C8.01549 11.1362 8.19565 11.0804 8.43661 11.0021C8.24688 11.2855 8.07631 11.5345 7.95864 11.8234C7.65464 12.4836 7.24816 12.4921 7.22168 13.0362C7.36019 12.6143 7.64167 12.5073 7.83647 12.2301C7.80211 12.407 7.7858 12.603 7.792 12.8295C7.79876 13.0756 7.84829 13.2919 7.92654 13.4857C7.90684 13.755 7.93048 14.2146 8.239 14.5182C8.02957 14.2529 7.98453 13.8214 8.00311 13.653C8.24462 14.1188 8.93317 14.7633 9.26588 15.1959C8.93317 14.6399 8.1174 13.9899 7.9423 13.239Z" fill="black"/>
<path fill-rule="evenodd" clip-rule="evenodd" d="M15.5636 11.0021C15.8029 11.081 15.9836 11.1367 16.2617 11.442C16.0647 10.9745 14.9212 10.4489 14.3988 9.9403C14.5558 9.97298 15.1976 9.98985 15.4634 9.81186C14.9814 9.94312 13.9079 9.79328 13.502 9.51611C13.7823 9.91944 14.3915 9.94199 15.1329 10.743C15.0378 10.6686 14.9117 10.5926 14.7974 10.5385C15.205 10.9751 15.0287 11.2364 14.946 11.317C15.098 11.2843 15.3249 11.0905 15.2731 10.903C15.3221 10.961 15.3716 11.0241 15.4223 11.0888C15.5242 11.224 15.6143 11.3564 15.6948 11.4848C15.8186 11.8532 15.5912 12.2334 15.2061 12.4019C15.6356 12.3388 15.8282 11.9563 15.8259 11.7135C16.0314 12.1011 16.1294 12.4548 16.1204 12.7517C16.1164 12.8621 16.1069 12.9652 16.0922 13.0626C15.9931 13.2496 15.8349 13.3184 15.5534 13.3527C15.8102 13.3685 15.9447 13.3567 16.0573 13.2401C15.8822 13.9909 15.0665 14.641 14.7332 15.1975C15.0665 14.7649 15.7539 14.1205 15.9965 13.6547C16.0151 13.8231 15.97 14.2546 15.7606 14.5199C16.0691 14.2163 16.0928 13.7566 16.0731 13.4873C16.1508 13.2936 16.1998 13.0773 16.2076 12.8311C16.215 12.6047 16.1975 12.4081 16.1637 12.2318C16.3591 12.5089 16.64 12.6159 16.7791 13.0378C16.7526 12.4931 16.3461 12.4847 16.0415 11.8245C15.9233 11.5339 15.7533 11.2849 15.5636 11.0021Z" fill="black"/>
<path fill-rule="evenodd" clip-rule="evenodd" d="M16.8853 12.2374C17.1245 12.2751 17.3126 12.2751 17.4021 12.0357C16.5227 11.6166 16.53 10.7373 15.5195 10.2765C16.0751 9.86422 15.9254 9.47725 15.667 9.08687C15.3939 9.57015 14.9233 9.63609 14.6345 9.47891C15.0409 9.33076 15.1947 8.82832 15.4412 8.68184C15.287 8.51626 15.0899 8.51062 14.8608 8.6672C14.7369 8.33375 14.3282 8.4436 14.2669 8.4436C14.3738 8.55063 14.4751 8.69087 14.456 8.84128C14.4138 9.17585 13.8705 9.1218 13.8705 9.1218C13.9803 8.8959 13.9313 8.76127 13.6875 8.64525C13.6132 8.82494 13.03 9.06715 12.9917 9.42204C12.9332 9.97687 13.5901 10.3137 14.1666 10.6263C14.8011 10.9694 14.5686 11.3434 14.3383 11.3552C14.2105 11.7496 14.6992 11.8205 14.9773 11.6606C14.9762 11.7129 14.9407 12.0295 14.5146 12.0554C14.5506 12.1805 14.621 12.221 14.7324 12.2621C14.6491 12.3247 14.4059 12.3337 14.2776 12.3337C14.2928 12.5049 14.4791 12.6429 14.7122 12.666C14.6936 12.7179 14.59 12.8012 14.4971 12.8271C14.7488 13.0778 15.4255 12.9127 15.5628 12.7686C15.6259 12.7021 15.703 12.7962 15.6276 12.8964C15.5499 12.9989 15.2099 13.1139 14.934 13.0288C14.9025 13.1831 14.9554 13.2417 14.9987 13.2834C14.9987 13.2834 14.7291 13.3104 14.6593 13.3482C14.6857 13.4642 14.8163 13.5312 14.8619 13.5769C14.8158 13.6163 14.7611 13.7087 14.7414 13.7797C14.8653 13.8394 15.202 13.9323 15.3827 13.7262C15.4559 13.6445 15.5358 13.6963 15.4609 13.8005C15.1952 14.1666 14.5596 14.1723 14.335 14.0579C14.3288 14.3446 14.4526 14.4038 14.6018 14.5221C14.1424 15.051 14.4459 15.5214 14.121 15.9844C14.733 15.9844 15.1158 15.6503 15.2228 15.3377C15.2352 15.4487 15.2937 15.5456 15.4564 15.5788C15.444 15.4622 15.4801 15.3439 15.5397 15.2245C15.6636 15.3242 15.8894 15.3473 16.1849 15.3597C15.8499 14.7908 16.798 14.2072 16.422 13.4315C16.3662 13.3149 16.5295 13.2406 16.5452 13.3595C16.633 14.0247 17.0238 14.1745 17.3531 13.9672C17.254 13.8591 17.2129 13.8613 17.1499 13.7627C17.3717 13.8219 17.4843 13.6608 17.5412 13.4591C16.9421 13.2485 17.2659 12.7314 16.8853 12.2374ZM16.9359 13.5577C16.9478 13.5769 16.9787 13.7954 17.0626 13.9008C16.6252 13.8726 16.8279 12.951 16.3904 13.173C16.2671 13.235 16.2305 13.3803 16.2874 13.4991C16.5734 14.0917 15.9215 14.6139 15.9581 15.1332C15.797 15.1321 15.6298 15.1276 15.5257 14.9107C15.4722 15.0189 15.3861 15.171 15.3393 15.3174L15.2087 15.0949C15.1277 15.4633 14.7842 15.8036 14.3214 15.8346C14.5416 15.4842 14.277 15.0054 14.8152 14.4967C14.7476 14.4426 14.5928 14.3379 14.5371 14.2669C15.1975 14.3446 15.8854 13.8225 15.573 13.5746C15.3686 13.413 15.2785 13.7487 14.9638 13.6923L15.0871 13.5859C15.0438 13.5431 14.9937 13.4873 14.9424 13.4451C15.077 13.4287 15.2234 13.3431 15.2234 13.3431L15.1434 13.2107C15.9164 13.2096 15.935 12.6181 15.6225 12.5945C15.4756 12.5838 15.2842 12.8559 14.8084 12.7989C14.8687 12.7257 14.8934 12.6148 14.9227 12.5331C14.8079 12.5224 14.6722 12.5235 14.5641 12.4705C14.7966 12.4407 14.8552 12.3624 15.0483 12.216L14.8242 12.1337C15.1502 11.9709 15.1293 11.6876 15.1395 11.3924C14.9694 11.4904 14.7679 11.6425 14.5557 11.5721C14.505 11.5552 14.4718 11.5316 14.4707 11.4786C14.7764 11.3581 14.9711 10.8877 14.2404 10.4923C13.7748 10.2405 12.6342 9.68621 13.4066 9.08856C13.5124 9.00745 13.6273 8.9342 13.7241 8.84352C13.8452 8.93646 13.6797 9.16741 13.6386 9.25191C13.6386 9.25191 13.8953 9.27782 13.9561 9.27782C14.3541 9.27611 14.7713 9.04068 14.5602 8.58893C14.7184 8.62158 14.7369 8.77423 14.7854 8.90436C14.8867 8.83564 15.0623 8.6886 15.1991 8.70945C15.0882 9.06264 14.6249 9.38091 14.264 9.45302C14.6283 9.65129 15.3038 9.79888 15.6591 9.3719C15.9079 9.85464 15.5612 10.0563 15.2205 10.3092C16.5176 10.9007 16.3257 11.5654 17.1769 12.0881C17.0671 12.1399 16.5739 12.0357 16.53 12.0295C16.7158 12.2689 16.8025 12.3703 16.8554 12.4869C16.9072 12.5962 16.9298 12.719 16.981 12.9854C17.0215 13.1955 17.0953 13.4051 17.3497 13.5442C17.2501 13.7239 17.0283 13.5819 16.9359 13.5577Z" fill="black"/>
<path fill-rule="evenodd" clip-rule="evenodd" d="M10.7592 15.0118L10.9444 14.8547L10.9163 14.7983C10.896 14.7578 10.9067 14.7555 10.9281 14.7398L11.0261 14.6671C11.0486 14.6485 11.0722 14.6508 11.0998 14.6575L11.3931 14.7262H11.0835C11.012 14.7307 10.9912 14.7583 10.9653 14.8113L10.9439 14.8547L10.8645 15.018C10.8375 15.0743 10.8234 15.1493 10.8943 15.2338L10.9506 15.3008L10.8369 15.5312H10.9326L11.0114 15.3712C11.0176 15.3656 11.1342 15.2591 11.1589 15.1493C11.1252 15.1216 11.1015 15.1025 11.1201 15.0642L11.1556 14.9876C11.1674 14.9623 11.1713 14.9521 11.2051 14.9583L11.5125 15.0248C11.5508 15.0355 11.6071 15.0524 11.6482 14.9904C11.6904 14.9262 11.696 14.933 11.794 14.9425L11.9511 14.9594C12.1655 14.9797 12.3801 14.9262 12.4634 14.8597C12.4926 14.9262 12.5506 14.9775 12.5776 15.0293C12.5878 15.0484 12.5709 15.0755 12.5579 15.1093L12.3817 15.5306H12.6537L12.8074 15.1464C12.8214 15.1098 12.8423 15.0805 12.858 15.0659L12.7696 15.5312H13.0337L13.1035 15.071C13.1187 14.9684 13.1097 14.9358 13.0607 14.8935C12.9509 14.8006 12.9532 14.6057 12.9177 14.4874C12.9363 14.4767 12.9582 14.4711 12.9841 14.4744C13.0415 14.4795 13.0849 14.6265 13.1525 14.7211C13.2876 14.911 13.4717 15.1205 13.6828 14.8254C13.6625 14.7916 13.6406 14.7612 13.6147 14.7319L13.5555 14.6626C13.5212 14.6243 13.358 14.4372 13.2898 14.3702C13.135 14.2142 12.8974 14.2379 12.8028 14.3139C12.5883 14.2012 12.362 14.3195 12.3086 14.315L11.9393 14.2925C11.9223 14.2914 11.897 14.2857 11.879 14.257L11.9477 14.2345C11.8835 13.9669 11.7219 13.7433 11.4398 13.7044C11.4398 13.7044 11.4235 13.6199 11.3802 13.6036L11.2957 13.7027C11.2721 13.7061 11.2462 13.7134 11.2248 13.7224L10.8645 13.5884L11.1347 13.8616C11.1347 13.8616 10.9946 14.0604 10.9546 14.101C10.9281 14.1381 10.9303 14.1669 10.9602 14.2024L11.0126 14.2711C11.0396 14.3066 11.0694 14.3054 11.1128 14.2835L11.1719 14.2525C11.1978 14.2311 11.2845 14.2733 11.3216 14.2395C11.298 14.3173 11.2862 14.3922 11.2805 14.4513L11.0379 14.422C10.985 14.4147 10.9608 14.422 10.9287 14.4474L10.7215 14.6068C10.654 14.6586 10.6331 14.7482 10.6748 14.8355L10.7592 15.0118ZM12.7634 15.0575L12.5991 15.463H12.4966L12.661 15.0704C12.6778 15.0197 12.6458 14.996 12.6047 14.9408C12.6655 14.9752 12.7094 14.9977 12.7831 15.0259C12.7769 15.0372 12.7691 15.0434 12.7634 15.0575ZM11.1781 14.1793L11.1313 14.2041C11.0987 14.2226 11.0824 14.2311 11.0542 14.1961L11.0339 14.1703C11.0238 14.1579 11.0205 14.128 11.0413 14.1044L11.2428 13.8695L11.057 13.7168L11.2935 13.8041L11.3802 13.696C11.4055 13.7174 11.3965 13.7799 11.3965 13.7799C11.4922 13.7799 11.7709 13.9185 11.7816 14.2655C11.7816 14.2655 11.8446 14.3584 11.9252 14.3635L12.3356 14.3883C12.4037 14.3883 12.5737 14.2587 12.7921 14.3809C12.8473 14.3477 12.9064 14.3212 12.9672 14.3145C13.1598 14.3004 13.3016 14.4344 13.4069 14.5696C13.4841 14.6676 13.5899 14.8175 13.5899 14.8175C13.5443 14.8716 13.4998 14.8896 13.4621 14.8761C13.4052 14.8468 13.3867 14.8011 13.3687 14.7375C13.3399 14.6367 13.229 14.5505 13.229 14.5505C13.2668 14.6181 13.2746 14.6947 13.2926 14.7651C13.1322 14.6062 13.1018 14.4125 12.9898 14.3854C12.9402 14.3731 12.8822 14.3944 12.8287 14.4564C12.8851 14.5877 12.8822 14.7398 12.9402 14.8417C12.9841 14.9177 12.9937 14.9245 13.0134 14.9414C13.0607 14.9752 13.0342 15.0366 13.0269 15.0811L12.9661 15.4625H12.8637L12.9312 15.0895C12.952 14.9758 12.6328 14.9758 12.4696 14.7589C12.3305 14.9217 11.9404 14.8811 11.7715 14.8558C11.7033 14.8456 11.6369 14.8502 11.5998 14.9172C11.5778 14.9549 11.5412 14.9437 11.5187 14.938L11.2107 14.8716C11.1567 14.8592 11.133 14.8699 11.1094 14.9195L11.048 15.0467C11.0345 15.0766 11.0351 15.0986 11.0598 15.1228L11.0891 15.1538C11.0717 15.2146 11.0159 15.2614 11.0159 15.2614L10.9489 15.1859C10.9163 15.1476 10.9146 15.0924 10.9405 15.0383L11.0402 14.8299C11.052 14.8068 11.0734 14.782 11.115 14.782L11.4956 14.7763L11.3791 14.5865C11.2923 14.444 11.4365 14.19 11.4145 14.07C11.4027 14.2305 11.2085 14.1573 11.1781 14.1793ZM10.7649 14.6581L10.945 14.5206C10.9771 14.4964 10.9985 14.4806 11.0351 14.4851L11.2896 14.5189C11.3036 14.5798 11.3441 14.6395 11.3441 14.6395L11.0734 14.5826C11.0351 14.5781 11.0238 14.5798 10.9878 14.6057L10.8594 14.7026C10.8341 14.7223 10.833 14.7538 10.8476 14.7848L10.8684 14.8293L10.7789 14.8969L10.7446 14.8327C10.7097 14.7645 10.7074 14.702 10.7649 14.6581Z" fill="black"/>
<path fill-rule="evenodd" clip-rule="evenodd" d="M11.55 9.76772C11.6485 9.8359 11.823 9.90857 11.823 9.90857V9.7925L11.4385 9.64551C11.4385 9.64551 11.4385 9.69279 11.55 9.76772Z" fill="black"/>
<path fill-rule="evenodd" clip-rule="evenodd" d="M11.8223 9.62851V9.51247L11.386 9.35645C11.386 9.35645 11.4378 9.41165 11.5493 9.48769C11.6478 9.55529 11.8223 9.62851 11.8223 9.62851Z" fill="black"/>
<path fill-rule="evenodd" clip-rule="evenodd" d="M11.8225 9.36459V9.24802L11.3445 9.07227C11.3445 9.07227 11.438 9.14775 11.5494 9.22379C11.6479 9.29193 11.8225 9.36459 11.8225 9.36459Z" fill="black"/>
<path fill-rule="evenodd" clip-rule="evenodd" d="M13.165 10.9491H13.6537C13.6334 10.8782 13.5574 10.8066 13.415 10.8066C13.2799 10.8066 13.1988 10.8843 13.165 10.9491Z" fill="black"/>
<path fill-rule="evenodd" clip-rule="evenodd" d="M12.6536 9.07227L12.1768 9.24802V9.36459C12.1768 9.36459 12.3513 9.29193 12.4498 9.22379C12.5607 9.14775 12.6536 9.07227 12.6536 9.07227Z" fill="black"/>
<path fill-rule="evenodd" clip-rule="evenodd" d="M12.5607 9.64551L12.1768 9.79306V9.90912C12.1768 9.90912 12.3513 9.8359 12.4498 9.7683C12.5607 9.69279 12.5607 9.64551 12.5607 9.64551Z" fill="black"/>
<path fill-rule="evenodd" clip-rule="evenodd" d="M12.6128 9.35645L12.1765 9.51247V9.62851C12.1765 9.62851 12.3516 9.55585 12.4496 9.48824C12.561 9.41165 12.6128 9.35645 12.6128 9.35645Z" fill="black"/>
<path fill-rule="evenodd" clip-rule="evenodd" d="M10.5834 10.8066C10.441 10.8066 10.365 10.8782 10.3447 10.9491H10.8339C10.799 10.8843 10.7191 10.8066 10.5834 10.8066Z" fill="black"/>
<path fill-rule="evenodd" clip-rule="evenodd" d="M12.9703 8.75933C12.9703 8.48443 12.5086 8.23828 11.9991 8.23828C11.4896 8.23828 11.028 8.48443 11.028 8.75933L11.0387 8.82691L11.2414 9.99462L10.2787 10.5562C10.1762 10.6165 10.0478 10.7821 10.0315 10.9489H10.2072C10.2364 10.7821 10.3676 10.5973 10.6136 10.6086C10.836 10.6204 10.9677 10.7556 11.0983 10.9489L11.1321 10.9996L11.1805 11.0756H9.76465C9.8688 11.2846 9.96731 11.5065 9.96731 11.747V14.6925C9.96731 15.4501 10.5489 15.8112 11.1789 15.8112C11.6653 15.8112 11.7311 15.7892 11.9997 16.0579C12.2671 15.7892 12.333 15.8112 12.8205 15.8112C13.4499 15.8112 14.032 15.4501 14.032 14.6925V11.7476C14.032 11.5071 14.1306 11.2851 14.2347 11.0761H12.8177L12.8667 11.0001L12.9005 10.9494C13.0305 10.7562 13.1628 10.621 13.3852 10.6092C13.6301 10.5979 13.7624 10.7827 13.7911 10.9494H13.9662C13.9504 10.7827 13.8215 10.6165 13.7196 10.5568L12.7569 9.99517L12.9601 8.82747L12.9703 8.75933ZM11.225 8.89337L11.9434 9.13786V10.2628L11.4142 9.98448L11.225 8.89337ZM11.4018 11.2801C11.4964 11.4096 11.6495 11.5054 11.8308 11.5426C11.846 11.6107 11.8832 11.6856 11.9552 11.7459C11.9254 11.947 12.0115 12.1346 12.2277 12.1841C12.2502 12.2867 12.3138 12.3638 12.4202 12.4004L12.2699 12.5739C12.2125 12.6404 12.1376 12.6618 12.0757 12.6539L11.4046 12.5779C11.4339 12.5035 11.3562 12.4174 11.1439 12.4539L11.408 11.716L11.247 11.3741L10.9418 11.6344L10.9193 12.4083L10.7898 12.3447C10.6192 12.2715 10.5697 12.5796 10.7319 12.5807L10.796 12.5813C10.7921 12.6128 10.8017 12.6477 10.8264 12.6584C10.796 12.6714 10.787 12.7289 10.8253 12.7491C10.7865 12.7671 10.7814 12.8257 10.8124 12.8511C10.7786 12.908 10.7735 13.0313 10.8912 13.0623C10.9874 13.0877 11.0477 12.984 11.0674 12.9237L12.1111 13.2471C12.2592 13.2893 12.3639 13.2657 12.4867 13.1581L12.7592 12.9198C12.7248 13.0758 12.7811 13.2161 12.8999 13.2628C12.8999 13.2628 12.883 13.4031 12.8881 13.4656H10.1706V11.7476C10.1706 11.5876 10.1244 11.4277 10.0692 11.2801H11.4018ZM12.5244 11.9318C12.467 12.0416 12.4726 12.1678 12.5401 12.2822L12.4951 12.3261C12.2992 12.3019 12.2221 12.0095 12.2221 12.0095C12.2181 12.036 12.2159 12.0614 12.2165 12.0872C12.1022 12.045 12.0301 11.9436 12.0357 11.8045C12.0791 11.8287 12.1275 11.8456 12.1793 11.8546L12.1928 11.769C12.056 11.7453 11.976 11.6597 11.9456 11.5583C11.9389 11.5578 11.9332 11.5561 11.9271 11.5555C11.9513 11.5572 11.9755 11.5595 12.0002 11.5595C12.0813 11.5595 12.1585 11.5471 12.2305 11.5256C12.2874 11.6068 12.3881 11.6648 12.4895 11.676C12.4731 11.7436 12.481 11.8276 12.5244 11.9318ZM12.8143 12.7046C12.7946 12.7311 12.7788 12.7615 12.7687 12.7947L12.6595 12.895C12.6815 12.735 12.5739 12.5463 12.476 12.4692L12.5919 12.3554L12.615 12.3791C12.5762 12.481 12.6522 12.681 12.8143 12.7046ZM12.2868 12.6545L12.3769 12.5661C12.4681 12.646 12.5886 12.8246 12.5508 12.9947L12.4529 13.0849C12.4326 13.1046 12.4118 13.1186 12.3904 13.1316C12.4518 12.9801 12.3735 12.7469 12.2868 12.6545ZM12.0931 12.7294H12.096C12.1286 12.7345 12.1635 12.7289 12.195 12.7159C12.2637 12.8139 12.3172 13.037 12.235 13.1761C12.1883 13.1772 12.1427 13.1688 12.0999 13.1564L12.0661 13.1463C12.1354 13.0387 12.1258 12.8482 12.0931 12.7294ZM11.8663 12.7013L11.9929 12.717C12.0132 12.8224 11.9997 13.0043 11.9327 13.108L11.7852 13.0651C11.85 12.9773 11.8804 12.7964 11.8663 12.7013ZM11.6022 12.6691L11.7559 12.6872C11.7711 12.7717 11.7424 12.9513 11.6844 13.037L11.5279 12.9919C11.5904 12.9091 11.6129 12.7632 11.6022 12.6691ZM10.9801 12.628C10.9086 12.6511 10.8771 12.5993 10.8799 12.5554C11.0201 12.5041 11.0826 12.5373 11.1237 12.5632C11.1614 12.5869 11.1929 12.6545 11.2436 12.6967C11.2351 12.7542 11.2177 12.8376 11.1969 12.8933C11.0533 12.8567 11.046 12.73 11.0995 12.6528C11.0696 12.6179 11.0381 12.6089 10.9801 12.628ZM10.8799 12.908C10.8799 12.908 10.9227 12.926 10.9767 12.9299C10.9706 12.9598 10.9475 12.988 10.9109 12.9801C10.8805 12.9733 10.8669 12.9362 10.8799 12.908ZM10.7386 12.4968C10.7031 12.4731 10.7189 12.4213 10.7583 12.4213C10.8017 12.4224 10.8591 12.4714 10.916 12.4956C10.916 12.4956 10.7667 12.5159 10.7386 12.4968ZM10.8844 12.7953C10.9154 12.8252 11.0083 12.8139 11.0083 12.8139L11.0117 12.8325C10.9711 12.8866 10.8585 12.8624 10.8844 12.7953ZM11.0094 12.7339C10.943 12.7604 10.8749 12.7243 10.8957 12.6815C10.9266 12.7097 11.0128 12.6956 11.0128 12.6956L11.0094 12.7339ZM11.1074 11.9605L10.9801 12.4241L11.0235 11.676L11.2205 11.5076L11.3207 11.7279L11.0674 12.4545L11.1344 11.9656C11.1406 11.9307 11.113 11.9267 11.1074 11.9605ZM11.1164 12.5227C11.1164 12.5227 11.2582 12.5159 11.2982 12.5311C11.3275 12.5435 11.3078 12.5931 11.2695 12.5875C11.2295 12.5824 11.1164 12.5227 11.1164 12.5227ZM11.3387 12.6354L11.493 12.6545C11.5048 12.739 11.4829 12.8821 11.4277 12.962L11.2785 12.9187C11.3179 12.8246 11.3275 12.7362 11.3387 12.6354ZM13.8288 14.6931C13.8288 15.0513 13.6633 15.3234 13.388 15.4743L13.4865 15.2738H13.3908L13.2641 15.5306C13.133 15.5802 12.9844 15.6078 12.8199 15.6078C12.3178 15.6078 12.1849 15.6281 11.9991 15.8134C11.8128 15.6281 11.6799 15.6078 11.1783 15.6078C11.015 15.6078 10.8664 15.5814 10.7358 15.5318H10.7392L10.8658 15.2738H10.7707L10.6598 15.4997C10.6333 15.4873 10.6074 15.4738 10.5827 15.4591L10.6739 15.2738H10.5793L10.5117 15.4118C10.2967 15.2535 10.17 15.0057 10.17 14.6931V13.5665H13.8277V14.6931H13.8288ZM13.9307 11.2801C13.8739 11.4277 13.8282 11.5876 13.8282 11.7476V13.4656H13.6284C13.5378 13.3778 13.4612 13.0849 13.4612 13.0849C13.4116 13.1902 13.4685 13.4037 13.5214 13.4656H13.2641C13.2005 13.3794 13.1453 13.0742 13.1453 13.0742C13.0682 13.162 13.1172 13.3992 13.1651 13.4656H12.9939C12.9832 13.3434 13.0181 13.2105 13.0181 13.2105C12.9286 13.1941 12.8335 13.1468 12.834 13.0477C12.8791 13.0899 12.8976 13.0893 12.9601 13.0882L13.0328 13.0308C12.7918 13.0387 12.7806 12.7739 12.9719 12.65C12.7811 12.6562 12.6387 12.5424 12.7079 12.3396C12.5722 12.2692 12.5244 12.0394 12.6246 11.9385C12.552 11.8597 12.5401 11.7048 12.5863 11.5994C12.4901 11.5994 12.382 11.5611 12.3217 11.4952C12.3172 11.4975 12.3116 11.4992 12.3065 11.5009C12.427 11.4519 12.5289 11.3752 12.5976 11.2806H13.9307V11.2801ZM13.2022 10.4532C13.0041 10.4875 12.8335 10.7303 12.6938 10.9494L12.6781 10.9747H12.5289L12.5283 11.0007C12.5131 11.1697 12.3527 11.3989 11.9991 11.3989C11.8359 11.3989 11.7125 11.3488 11.6281 11.2806C11.5549 11.2209 11.5088 11.1471 11.4862 11.0767C11.4778 11.0514 11.4727 11.0254 11.4705 11.0007L11.4694 10.9747H11.3213L11.3055 10.9494C11.1653 10.7309 10.9948 10.4881 10.7972 10.4532L11.3371 10.1394L12.0002 10.4999L12.6623 10.1394L13.2022 10.4532ZM12.5841 9.98448L12.0554 10.2628V9.13786L12.7738 8.89337L12.5841 9.98448ZM11.9997 9.01507L11.2143 8.70469C11.2808 8.54696 11.5887 8.41233 11.9997 8.41233C12.4101 8.41233 12.7175 8.54696 12.7839 8.70469L11.9997 9.01507Z" fill="black"/>
<path fill-rule="evenodd" clip-rule="evenodd" d="M13.7453 12.3902L13.747 12.304C13.4829 12.2978 13.4221 11.9863 13.4221 11.9863C13.345 12.2156 13.5465 12.3868 13.7453 12.3902Z" fill="black"/>
<path fill-rule="evenodd" clip-rule="evenodd" d="M13.4118 12.918L13.3854 12.8363C13.1602 12.8938 13.0437 12.5366 13.0437 12.5366C12.9716 12.7963 13.2227 12.98 13.4118 12.918Z" fill="black"/>
<path fill-rule="evenodd" clip-rule="evenodd" d="M13.5681 12.5868C13.299 12.6296 13.1887 12.3164 13.1887 12.3164C13.1588 12.4871 13.2692 12.66 13.4477 12.678C13.4071 12.9005 13.6138 13.0149 13.7928 12.9355L13.7669 12.8577C13.6115 12.9101 13.4657 12.7563 13.5681 12.5868Z" fill="black"/>
<path fill-rule="evenodd" clip-rule="evenodd" d="M13.4072 11.693L13.4094 11.6068C13.0542 11.5336 13.084 11.2891 13.084 11.2891C13.0075 11.5195 13.209 11.6896 13.4072 11.693Z" fill="black"/>
<path fill-rule="evenodd" clip-rule="evenodd" d="M11.1565 15.2734L11.0293 15.5314H11.125L11.2517 15.2734H11.1565Z" fill="black"/>
<path fill-rule="evenodd" clip-rule="evenodd" d="M11.3484 15.2734L11.2217 15.5314H11.318L11.4435 15.2734H11.3484Z" fill="black"/>
<path fill-rule="evenodd" clip-rule="evenodd" d="M12.1176 15.2734L11.991 15.5314H12.0861L12.2133 15.2734H12.1176Z" fill="black"/>
<path fill-rule="evenodd" clip-rule="evenodd" d="M12.3097 15.2734L12.1819 15.5314H12.2782L12.4043 15.2734H12.3097Z" fill="black"/>
<path fill-rule="evenodd" clip-rule="evenodd" d="M11.9253 15.2734L11.7981 15.5314H11.8938L12.0205 15.2734H11.9253Z" fill="black"/>
<path fill-rule="evenodd" clip-rule="evenodd" d="M13.0486 15.5314H13.1443L13.271 15.2734H13.1752L13.0486 15.5314Z" fill="black"/>
<path fill-rule="evenodd" clip-rule="evenodd" d="M11.5408 15.2734L11.4141 15.5314H11.5098L11.6365 15.2734H11.5408Z" fill="black"/>
<path fill-rule="evenodd" clip-rule="evenodd" d="M11.7321 15.2734L11.6055 15.5314H11.7017L11.8284 15.2734H11.7321Z" fill="black"/>
<path fill-rule="evenodd" clip-rule="evenodd" d="M11.2976 13.8867C11.2801 13.8867 11.2649 13.9036 11.2649 13.9256C11.2649 13.947 11.2801 13.9644 11.2976 13.9644C11.3156 13.9644 11.3313 13.947 11.3313 13.9256C11.3308 13.9036 11.3156 13.8867 11.2976 13.8867Z" fill="black"/>
<path fill-rule="evenodd" clip-rule="evenodd" d="M11.9996 8.0639C12.3937 8.0639 12.7095 8.19459 12.8834 8.33483C12.8834 8.33483 12.9358 8.02166 13.112 7.74676L12.7945 7.78224L12.6284 7.4285L12.3092 7.59467L11.9996 7.28711L11.6899 7.59467L11.3696 7.4285L11.2035 7.78224L10.886 7.74676C11.0628 8.02166 11.1146 8.33483 11.1146 8.33483C11.2891 8.19459 11.6055 8.0639 11.9996 8.0639ZM11.2581 7.92307L11.4096 7.60199L11.6899 7.75128L11.9996 7.4454L12.3092 7.75128L12.5896 7.60199L12.7393 7.92307L12.9257 7.89435C12.8778 7.98392 12.8418 8.06219 12.8086 8.17204C12.6048 8.0532 12.3019 7.96137 11.9996 7.96137C11.6961 7.96137 11.3938 8.0532 11.19 8.17204C11.1562 8.06219 11.1208 7.98392 11.0723 7.89435L11.2581 7.92307Z" fill="black"/>
<path fill-rule="evenodd" clip-rule="evenodd" d="M12.3245 7.43163C12.3706 7.43557 12.4117 7.40065 12.4156 7.35503C12.4202 7.30885 12.3526 7.18604 12.3526 7.18604C12.3526 7.18604 12.2518 7.29474 12.2484 7.34095C12.2439 7.38601 12.2788 7.42713 12.3245 7.43163Z" fill="black"/>
<path fill-rule="evenodd" clip-rule="evenodd" d="M12.8443 7.62044C12.8854 7.64243 12.9355 7.62609 12.9574 7.58496C12.9799 7.5444 12.9653 7.40527 12.9653 7.40527C12.9653 7.40527 12.8313 7.46556 12.8094 7.50666C12.788 7.54722 12.8038 7.59793 12.8443 7.62044Z" fill="black"/>
<path fill-rule="evenodd" clip-rule="evenodd" d="M11.6749 7.43163C11.7217 7.42713 11.756 7.38657 11.7521 7.34095C11.7476 7.29474 11.6479 7.18604 11.6479 7.18604C11.6479 7.18604 11.5809 7.30941 11.5849 7.35503C11.5883 7.40065 11.6293 7.43557 11.6749 7.43163Z" fill="black"/>
<path fill-rule="evenodd" clip-rule="evenodd" d="M11.1554 7.62044C11.1965 7.59793 11.2117 7.54722 11.1903 7.50666C11.1689 7.46556 11.0344 7.40527 11.0344 7.40527C11.0344 7.40527 11.0203 7.5444 11.0428 7.58496C11.0637 7.62609 11.1143 7.64243 11.1554 7.62044Z" fill="black"/>
<path fill-rule="evenodd" clip-rule="evenodd" d="M17.396 10.4819C17.5069 10.4425 17.5925 10.3366 17.6353 10.2386C17.3532 10.198 16.6039 9.88313 15.988 10.1394C16.2188 9.92032 16.426 9.89216 16.4457 9.57674C16.5414 9.64545 16.703 9.6843 16.7942 9.52038C16.7306 9.3328 16.5701 9.4849 16.5476 9.43307C16.516 9.36096 16.7497 9.45506 16.7998 9.21115C16.6179 9.14862 16.5639 9.29732 16.5313 9.26296C16.5014 9.23032 16.6467 9.16775 16.5397 8.97119C16.3505 9.08215 16.449 9.20664 16.4091 9.22073C16.3607 9.23986 16.3989 9.08721 16.1895 9.09453C16.1687 9.31929 16.386 9.32661 16.3505 9.36211C16.3072 9.40547 16.2509 9.23309 16.0927 9.32042C16.0955 9.50181 16.2424 9.6015 16.3939 9.5587C16.3691 9.90343 16.0527 9.83922 15.8174 10.2279C16.3162 10.4836 16.5419 10.9298 16.8488 11.2384C16.9501 11.1663 17.1235 10.8464 17.1235 10.8464C17.4557 11.1038 17.6893 10.8475 17.6893 10.8475C17.575 10.7303 17.5705 10.6414 17.396 10.4819ZM16.9118 10.5445C16.9462 10.6205 17.0143 10.8858 16.8516 11.088C16.6664 10.7179 16.4119 10.4008 16.2058 10.2639C16.1608 10.2347 16.2306 10.1834 16.3579 10.1665C16.7412 10.0938 17.1911 10.256 17.405 10.313C17.3053 10.3873 17.2243 10.4211 17.1224 10.4335C17.2778 10.5642 17.3915 10.6746 17.4714 10.7974C17.3211 10.8351 17.2361 10.7399 16.9118 10.5445Z" fill="black"/>
<path fill-rule="evenodd" clip-rule="evenodd" d="M13.7092 16.2978V15.8765C13.3838 16.0258 12.97 16.1469 12.4374 16.1948L12.4132 16.3451C12.4582 16.3514 12.5156 16.357 12.5922 16.362C12.3952 16.3891 12.1401 16.4021 12.0005 16.4021C11.8603 16.4021 11.6059 16.3891 11.4083 16.362C11.4843 16.357 11.5417 16.3514 11.5867 16.3451L11.5625 16.1948C11.0299 16.1469 10.6156 16.0258 10.2907 15.8765V16.2978L9.84937 16.4792C10.1765 16.6493 10.5525 16.7879 10.9871 16.9L10.9354 17.0763C11.1842 17.1495 11.5822 17.2239 11.9994 17.2239C12.4165 17.2239 12.814 17.149 13.0634 17.0763L13.0122 16.9C13.4463 16.7879 13.8235 16.6493 14.1506 16.4792L13.7092 16.2978ZM10.0852 16.4888L10.3831 16.3688V16.0258C10.5745 16.0995 10.8256 16.1762 11.1859 16.2511L11.017 16.8014C10.6494 16.7169 10.3369 16.6031 10.0852 16.4888ZM11.9999 17.123C11.6638 17.123 11.3356 17.0729 11.0553 17.0037L11.2337 16.4263C11.352 16.4539 11.6481 16.4899 11.9999 16.4899C12.3524 16.4899 12.6468 16.4533 12.7656 16.4263L12.9446 17.0037C12.6631 17.0729 12.3355 17.123 11.9999 17.123ZM12.9835 16.8014L12.8146 16.2511C13.1749 16.1767 13.426 16.0995 13.6174 16.0258V16.3688L13.9147 16.4888C13.663 16.6031 13.3517 16.7169 12.9835 16.8014Z" fill="black"/>
<path fill-rule="evenodd" clip-rule="evenodd" d="M6.8761 10.8464C6.8761 10.8464 7.0495 11.1663 7.15026 11.2384C7.45764 10.9303 7.68396 10.4842 8.1822 10.2279C7.94631 9.83922 7.62993 9.90456 7.60627 9.5587C7.75771 9.6015 7.90409 9.50123 7.90747 9.32042C7.74871 9.23309 7.69242 9.40662 7.64962 9.36211C7.61417 9.32548 7.8309 9.31929 7.81065 9.09453C7.60121 9.08778 7.63948 9.23986 7.59051 9.22073C7.55109 9.20664 7.64962 9.08157 7.45991 8.97119C7.3535 9.16835 7.4993 9.23032 7.4689 9.26296C7.43683 9.29732 7.38166 9.14918 7.20035 9.21115C7.24935 9.45506 7.4841 9.36096 7.45259 9.43307C7.43007 9.4849 7.27016 9.3328 7.20711 9.52038C7.29721 9.68488 7.45935 9.64601 7.55447 9.57729C7.57475 9.89329 7.78137 9.91976 8.01274 10.1394C7.3963 9.88313 6.64696 10.198 6.36377 10.2391C6.40713 10.3366 6.4927 10.4425 6.6036 10.4808C6.42909 10.6419 6.42456 10.7309 6.3103 10.8475C6.3103 10.8475 6.54338 11.1038 6.8761 10.8464ZM6.52703 10.7979C6.60754 10.6751 6.72071 10.5642 6.87721 10.4341C6.77474 10.4211 6.69423 10.3873 6.59402 10.313C6.80852 10.256 7.25891 10.0932 7.64286 10.1665C7.76896 10.1834 7.83992 10.2347 7.79374 10.2639C7.58769 10.4008 7.33266 10.7179 7.14744 11.088C6.9853 10.8858 7.05399 10.6211 7.08721 10.545C6.76348 10.7399 6.67903 10.8351 6.52703 10.7979Z" fill="black"/>
<path fill-rule="evenodd" clip-rule="evenodd" d="M11.7302 10.6113V10.7967C11.7939 10.7195 11.9177 10.7347 11.9177 10.7347V11.0023C11.9177 11.0023 11.9132 11.1341 11.867 11.1904H12.0005H12.1339C12.0872 11.1341 12.0832 11.0023 12.0832 11.0023V10.7352C12.0832 10.7352 12.2065 10.7201 12.2701 10.7972V10.6119H12.0005H11.7302V10.6113Z" fill="black"/>
</svg>
