<svg width="13" height="15" viewBox="0 0 13 15" fill="none" xmlns="http://www.w3.org/2000/svg">
<g id="fi_159604" clip-path="url(#clip0_2617_26765)">
<g id="Group">
<path id="Vector" d="M6.5 2.55542C4.01621 2.55542 1.76378 4.04208 0.101718 6.45682C-0.0339061 6.65465 -0.0339061 6.93104 0.101718 7.12887C1.76378 9.54652 4.01621 11.0332 6.5 11.0332C8.98379 11.0332 11.2362 9.54652 12.8983 7.13178C13.0339 6.93395 13.0339 6.65756 12.8983 6.45973C11.2362 4.04208 8.98379 2.55542 6.5 2.55542ZM6.67817 9.77927C5.02941 9.89273 3.66784 8.40607 3.77156 6.59938C3.85665 5.1098 4.96026 3.90244 6.32183 3.80934C7.97059 3.69587 9.33216 5.18254 9.22844 6.98923C9.14069 8.47589 8.03708 9.68326 6.67817 9.77927ZM6.59573 8.40025C5.70753 8.46134 4.97356 7.66128 5.03206 6.68957C5.07727 5.88659 5.67296 5.23782 6.40692 5.18545C7.29513 5.12435 8.0291 5.92442 7.97059 6.89613C7.92273 7.70201 7.32704 8.35079 6.59573 8.40025Z" fill="#D7B27B"/>
</g>
</g>
<defs>
<clipPath id="clip0_2617_26765">
<rect width="13" height="14.2222" fill="white" transform="translate(0 0.777832)"/>
</clipPath>
</defs>
</svg>
