<svg width="24" height="24" viewBox="0 0 24 24" fill="none" xmlns="http://www.w3.org/2000/svg">
<g id="write 1" clip-path="url(#clip0_1575_74243)">
<g id="Group">
<path id="Vector" d="M23.2969 8.9043H21.7969C21.4086 8.9043 21.0938 9.21911 21.0938 9.60742V19.9199C21.0938 20.3082 21.4086 20.623 21.7969 20.623H23.2969C23.6852 20.623 24 20.3082 24 19.9199V9.60742C24 9.21911 23.6852 8.9043 23.2969 8.9043Z" fill="#D7B27B"/>
<path id="Vector_2" d="M13.5958 4.46644L14.7677 2.4367C15.0266 1.9883 14.8729 1.41492 14.4245 1.15603L13.6127 0.68728C13.1642 0.428389 12.5909 0.582046 12.332 1.03045L11.1602 3.06019L13.5958 4.46644Z" fill="#D7B27B"/>
<path id="Vector_3" d="M0.835183 16.4678C1.23695 16.6968 1.74962 16.5472 1.98086 16.1467L7.72684 6.19441C7.19082 6.06705 6.61876 6.18035 6.16862 6.51794L4.17798 8.01091C3.5987 8.4454 3.11739 8.99702 2.76545 9.62983L0.208746 14.2271C-0.230145 15.0163 0.045152 16.0117 0.827168 16.4632C0.82984 16.4647 0.832511 16.4662 0.835183 16.4678Z" fill="#D7B27B"/>
<path id="Vector_4" d="M5.00436 14.0673H8.05273L12.8925 5.68457L10.4568 4.27832L4.80078 14.0749C4.86814 14.0704 4.93588 14.0673 5.00436 14.0673Z" fill="#D7B27B"/>
<path id="Vector_5" d="M2.27027 18.457L1.54282 19.717C1.5086 19.7763 1.48324 19.8402 1.46749 19.9068L0.796665 22.7443C0.668274 23.2873 1.32373 23.6657 1.72985 23.283L3.85179 21.2834C3.90157 21.2365 3.94427 21.1825 3.97849 21.1232L4.55365 20.127C3.54954 19.9776 2.7041 19.3364 2.27027 18.457Z" fill="#D7B27B"/>
<path id="Vector_6" d="M10.6 20.1611H6.1585L5.23047 21.7685C5.52887 22.0778 5.94733 22.2705 6.41102 22.2705C7.31711 22.2705 8.05164 21.5359 8.05164 20.6298C8.05164 21.5359 8.78617 22.2705 9.69227 22.2705C10.5984 22.2705 11.3329 21.5359 11.3329 20.6298V20.5227C11.1627 20.4449 10.7729 20.2469 10.6 20.1611Z" fill="#D7B27B"/>
<path id="Vector_7" d="M13.3981 7.62207L9.67701 14.0671H10.7818C11.1701 14.0671 11.4849 14.382 11.4849 14.7703C11.4849 15.1585 11.1702 15.4734 10.7819 15.4734H5.00488C4.09879 15.4734 3.36426 16.2079 3.36426 17.114C3.36426 18.0201 4.09879 18.7546 5.00488 18.7546H10.9321L11.7098 19.1431C13.0406 19.8086 14.5312 20.1609 16.0206 20.1609C17.2545 20.1609 18.53 19.9184 19.6881 19.457V10.317H18.5799L13.3981 7.62207Z" fill="#D7B27B"/>
</g>
</g>
<defs>
<clipPath id="clip0_1575_74243">
<rect width="24" height="24" fill="white"/>
</clipPath>
</defs>
</svg>
